<svg width="439" height="155" viewBox="0 0 439 155" fill="none" xmlns="http://www.w3.org/2000/svg">
<path d="M52.992 31.176C56.32 31.176 58.752 31.4747 60.288 32.072C61.9093 32.584 63.0613 33.48 63.744 34.76C64.6827 36.7227 65.152 39.368 65.152 42.696V92.232C65.152 101.192 61.9093 109.128 55.424 116.04C48.9387 122.867 40.6613 126.28 30.592 126.28C24.96 126.28 19.968 125.043 15.616 122.568C11.6907 120.435 8.96 118.515 7.424 116.808L6.4 115.784C3.41333 112.627 1.92 109.939 1.92 107.72C1.92 105.416 3.41333 102.728 6.4 99.656C9.38667 96.584 12.032 95.048 14.336 95.048C16.64 95.048 19.2 96.456 22.016 99.272C24.832 102.088 27.8613 103.496 31.104 103.496C34.432 103.496 37.1627 102.387 39.296 100.168C41.4293 97.9493 42.496 95.0053 42.496 91.336V43.464C42.496 38.344 43.3493 35.0587 45.056 33.608C47.0187 31.9867 49.664 31.176 52.992 31.176ZM234.694 83.272C234.694 88.4773 233.371 92.36 230.726 94.92C228.166 97.3947 225.307 98.632 222.15 98.632H191.814C191.814 101.021 193.222 103.027 196.038 104.648C198.854 106.269 201.67 107.08 204.486 107.08C209.435 107.08 213.318 106.568 216.134 105.544L217.542 105.032C219.59 104.093 221.297 103.624 222.662 103.624C225.393 103.624 227.739 105.544 229.702 109.384C230.811 111.688 231.366 113.651 231.366 115.272C231.366 122.867 222.278 126.664 204.102 126.664C197.787 126.664 192.155 125.597 187.206 123.464C182.342 121.245 178.545 118.344 175.814 114.76C170.438 107.848 167.75 100.125 167.75 91.592C167.75 80.84 171.206 72.264 178.118 65.864C185.115 59.3787 193.819 56.136 204.23 56.136C216.091 56.136 224.795 60.3173 230.342 68.68C233.243 73.1173 234.694 77.9813 234.694 83.272ZM207.686 86.984C210.929 86.984 212.55 85.6187 212.55 82.888C212.55 80.9253 211.782 79.3467 210.246 78.152C208.795 76.9573 206.662 76.36 203.846 76.36C201.115 76.36 198.385 77.512 195.654 79.816C192.923 82.0347 191.558 84.424 191.558 86.984H207.686ZM278.757 116.552C275.514 120.819 270.352 122.952 263.269 122.952C256.186 122.952 249.53 119.709 243.301 113.224C237.157 106.653 234.085 99.016 234.085 90.312C234.085 81.608 237.2 73.9707 243.429 67.4C249.658 60.8293 256.485 57.544 263.909 57.544C266.81 57.544 269.456 58.0987 271.845 59.208C274.234 60.232 275.856 61.2133 276.709 62.152C277.648 63.0053 278.373 63.816 278.885 64.584C279.141 62.1947 279.994 60.4027 281.445 59.208C282.981 57.928 285.413 57.288 288.741 57.288C292.069 57.288 294.501 57.544 296.037 58.056C297.573 58.568 298.64 59.464 299.237 60.744C299.92 61.9387 300.304 63.0053 300.389 63.944C300.56 64.8827 300.645 66.3333 300.645 68.296V121.288C300.645 131.101 297.232 138.995 290.405 144.968C283.578 151.027 275.898 154.056 267.365 154.056C260.88 154.056 254.693 152.477 248.805 149.32C242.917 146.163 239.973 143.304 239.973 140.744C239.973 137.416 241.253 134.472 243.813 131.912C245.434 130.12 246.672 128.883 247.525 128.2C248.464 127.517 249.53 127.176 250.725 127.176C251.92 127.176 253.157 127.688 254.437 128.712C258.533 131.869 262.97 133.448 267.749 133.448C270.992 133.448 273.637 132.168 275.685 129.608C277.733 127.048 278.757 123.976 278.757 120.392V116.552ZM255.973 90.44C255.973 93.1707 257.04 95.6453 259.173 97.864C261.392 100.083 264.037 101.192 267.109 101.192C270.266 101.192 272.869 100.083 274.917 97.864C276.965 95.56 277.989 93.0853 277.989 90.44C277.989 87.7093 277.008 85.192 275.045 82.888C273.082 80.4987 270.437 79.304 267.109 79.304C263.781 79.304 261.093 80.456 259.045 82.76C256.997 85.064 255.973 87.624 255.973 90.44ZM368.864 83.272C368.864 88.4773 367.541 92.36 364.896 94.92C362.336 97.3947 359.477 98.632 356.32 98.632H325.984C325.984 101.021 327.392 103.027 330.208 104.648C333.024 106.269 335.84 107.08 338.656 107.08C343.605 107.08 347.488 106.568 350.304 105.544L351.712 105.032C353.76 104.093 355.467 103.624 356.832 103.624C359.563 103.624 361.909 105.544 363.872 109.384C364.981 111.688 365.536 113.651 365.536 115.272C365.536 122.867 356.448 126.664 338.272 126.664C331.957 126.664 326.325 125.597 321.376 123.464C316.512 121.245 312.715 118.344 309.984 114.76C304.608 107.848 301.92 100.125 301.92 91.592C301.92 80.84 305.376 72.264 312.288 65.864C319.285 59.3787 327.989 56.136 338.4 56.136C350.261 56.136 358.965 60.3173 364.512 68.68C367.413 73.1173 368.864 77.9813 368.864 83.272ZM341.856 86.984C345.099 86.984 346.72 85.6187 346.72 82.888C346.72 80.9253 345.952 79.3467 344.416 78.152C342.965 76.9573 340.832 76.36 338.016 76.36C335.285 76.36 332.555 77.512 329.824 79.816C327.093 82.0347 325.728 84.424 325.728 86.984H341.856ZM415.999 58.312C417.62 58.824 418.943 59.72 419.967 61C421.076 62.1947 421.631 64.1573 421.631 66.888C421.631 69.6187 420.82 72.6053 419.199 75.848C417.578 79.0907 415.231 80.712 412.159 80.712C410.623 80.712 409.13 80.3707 407.679 79.688C406.314 79.0053 404.479 78.664 402.175 78.664C399.871 78.664 397.695 79.4747 395.647 81.096C393.684 82.7173 392.703 84.68 392.703 86.984V113.864C392.703 115.827 392.618 117.32 392.447 118.344C392.362 119.283 391.978 120.392 391.295 121.672C390.015 123.891 386.687 125 381.311 125C377.215 125 374.271 124.275 372.479 122.824C371.114 121.629 370.346 119.795 370.175 117.32C370.175 116.467 370.175 115.229 370.175 113.608V68.68C370.175 66.7173 370.218 65.2667 370.303 64.328C370.474 63.304 370.858 62.1947 371.455 61C372.65 58.696 375.978 57.544 381.439 57.544C386.559 57.544 389.759 58.5253 391.039 60.488C391.978 61.8533 392.447 63.2613 392.447 64.712C392.874 64.1147 393.471 63.3893 394.239 62.536C395.092 61.6827 396.842 60.5307 399.487 59.08C402.132 57.6293 404.436 56.904 406.399 56.904C408.447 56.904 410.154 57.032 411.519 57.288C412.884 57.4587 414.378 57.8 415.999 58.312Z" fill="#423DE3"/>
<path d="M161.273 73.2586C160.96 69.6635 160.511 40.8682 154.868 38.4666C145.311 34.4024 128.152 58.2249 128.152 58.2249C128.152 58.2249 127.028 57.2893 116.5 57.2893C105.973 57.2893 104.848 58.2249 104.848 58.2249C104.848 58.2249 87.6888 34.4024 78.1325 38.4666C72.4892 40.8682 72.0398 69.6635 71.7273 73.2586C71.4147 76.8537 62.9245 91.2562 65.4783 102.29C70.3178 123.185 95.0458 124.924 116.5 124.924C137.954 124.924 162.682 123.185 167.522 102.29C170.076 91.2562 161.585 76.8537 161.273 73.2586Z" fill="#35EDE8"/>
<path d="M121.906 68.0818C121.883 65.5009 119.497 63.4185 116.567 63.416C116.544 63.416 116.522 63.416 116.5 63.416C116.477 63.416 116.455 63.416 116.433 63.416C113.502 63.4185 111.116 65.5009 111.094 68.0818C110.968 82.4819 105.23 104.104 68.2158 109.32C76.5078 123.597 97.7527 124.923 116.5 124.923C135.247 124.923 156.492 123.597 164.784 109.32C127.77 104.104 122.031 82.4819 121.906 68.0818Z" fill="white"/>
<path d="M102 85.5C102 87.4336 100.434 89 98.5 89C96.5665 89 95 87.4336 95 85.5C95 83.5687 96.5665 82 98.5 82C100.434 82 102 83.5687 102 85.5Z" fill="#4A4B5C"/>
<path d="M131 85.5C131 87.4336 132.566 89 134.5 89C136.434 89 138 87.4336 138 85.5C138 83.5687 136.434 82 134.5 82C132.566 82 131 83.5687 131 85.5Z" fill="#4A4B5C"/>
<path d="M116.5 85C112.699 85 109.396 85.9114 110.094 87.7934C110.66 89.3133 112.582 90.8405 114.842 91.3726C114.897 95.4962 114.952 97.5703 115.009 101.694C115.032 103.433 118.183 103.438 118.16 101.694C118.103 97.5826 118.048 95.5183 117.994 91.4071C120.324 90.9119 122.326 89.3502 122.906 87.7934C123.604 85.9114 120.301 85 116.5 85Z" fill="#4A4B5C"/>
<path d="M82.1194 67.8354C84.7592 66.3869 90.1233 63.6142 96.2408 61.3931C96.9521 61.1347 97.222 60.367 96.7975 59.8006C94.121 56.218 85.6195 45.2415 82.5383 46.0415C79.353 46.8714 79.9434 61.6987 80.2583 66.9757C80.3061 67.7956 81.3294 68.2702 82.1194 67.8354Z" fill="white"/>
<path d="M150.881 67.8354C148.241 66.3869 142.877 63.6142 136.759 61.3931C136.048 61.1347 135.778 60.367 136.203 59.8006C138.879 56.218 147.38 45.2415 150.462 46.0415C153.647 46.8714 153.057 61.6987 152.742 66.9757C152.694 67.7956 151.671 68.2702 150.881 67.8354Z" fill="white"/>
</svg>
