<svg width="111" height="131" viewBox="0 0 111 131" fill="none" xmlns="http://www.w3.org/2000/svg">
<path d="M100.273 35.2586C99.9603 31.6635 99.5109 2.86824 93.8676 0.466586C84.3113 -3.59756 67.1524 20.2249 67.1524 20.2249C67.1524 20.2249 66.0276 19.2893 55.5001 19.2893C44.9725 19.2893 43.8477 20.2249 43.8477 20.2249C43.8477 20.2249 26.6888 -3.59756 17.1325 0.466586C11.4892 2.86824 11.0398 31.6635 10.7273 35.2586C10.4147 38.8537 1.92453 53.2562 4.47827 64.2896C9.31782 85.1849 34.0458 86.9235 55.5001 86.9235C76.9543 86.9235 101.682 85.1849 106.522 64.2896C109.076 53.2562 100.585 38.8537 100.273 35.2586Z" fill="#35EDE8"/>
<path d="M60.9058 30.0818C60.8835 27.5009 58.4972 25.4185 55.5666 25.416C55.5443 25.416 55.522 25.416 55.4997 25.416C55.4773 25.416 55.455 25.416 55.4327 25.416C52.5022 25.4185 50.1159 27.5009 50.0936 30.0818C49.968 44.4819 44.2297 66.1041 7.21582 71.3199C15.5078 85.5972 36.7527 86.9233 55.4997 86.9233C74.2466 86.9233 95.4915 85.5972 103.784 71.3199C66.7696 66.1041 61.0314 44.4819 60.9058 30.0818Z" fill="white"/>
<path d="M41 47.5C41 49.4336 39.4335 51 37.5 51C35.5665 51 34 49.4336 34 47.5C34 45.5687 35.5665 44 37.5 44C39.4335 44 41 45.5687 41 47.5Z" fill="#4A4B5C"/>
<path d="M70 47.5C70 49.4336 71.5665 51 73.5 51C75.4335 51 77 49.4336 77 47.5C77 45.5687 75.4335 44 73.5 44C71.5665 44 70 45.5687 70 47.5Z" fill="#4A4B5C"/>
<path d="M55.5 47C51.6994 47 48.3957 47.9114 49.0938 49.7934C49.6597 51.3133 51.5816 52.8405 53.8424 53.3726C53.897 57.4962 53.9516 59.5703 54.0091 63.6938C54.032 65.4329 57.1834 65.4379 57.1604 63.6938C57.103 59.5826 57.0484 57.5183 56.9938 53.4071C59.3236 52.9119 61.3259 51.3502 61.9062 49.7934C62.6043 47.9114 59.3006 47 55.5 47Z" fill="#4A4B5C"/>
<path d="M21.1194 29.8354C23.7592 28.3869 29.1233 25.6142 35.2408 23.3931C35.9521 23.1347 36.222 22.367 35.7975 21.8006C33.121 18.218 24.6195 7.24154 21.5383 8.04154C18.353 8.87136 18.9434 23.6987 19.2583 28.9757C19.3061 29.7956 20.3294 30.2702 21.1194 29.8354Z" fill="white"/>
<path d="M89.8806 29.8354C87.2408 28.3869 81.8767 25.6142 75.7592 23.3931C75.0479 23.1347 74.778 22.367 75.2025 21.8006C77.879 18.218 86.3805 7.24154 89.4617 8.04154C92.647 8.87136 92.0566 23.6987 91.7417 28.9757C91.6939 29.7956 90.6706 30.2702 89.8806 29.8354Z" fill="white"/>
<path d="M14.904 95.612C15.84 95.612 16.524 95.696 16.956 95.864C17.412 96.008 17.736 96.26 17.928 96.62C18.192 97.172 18.324 97.916 18.324 98.852V112.784C18.324 115.304 17.412 117.536 15.588 119.48C13.764 121.4 11.436 122.36 8.604 122.36C7.02 122.36 5.616 122.012 4.392 121.316C3.288 120.716 2.52 120.176 2.088 119.696L1.8 119.408C0.96 118.52 0.54 117.764 0.54 117.14C0.54 116.492 0.96 115.736 1.8 114.872C2.64 114.008 3.384 113.576 4.032 113.576C4.68 113.576 5.4 113.972 6.192 114.764C6.984 115.556 7.836 115.952 8.748 115.952C9.684 115.952 10.452 115.64 11.052 115.016C11.652 114.392 11.952 113.564 11.952 112.532V99.068C11.952 97.628 12.192 96.704 12.672 96.296C13.224 95.84 13.968 95.612 14.904 95.612ZM31.5298 105.044C31.6738 103.7 32.6218 103.028 34.3738 103.028C35.3098 103.028 36.0058 103.1 36.4618 103.244C36.9178 103.388 37.2298 103.64 37.3978 104C37.5898 104.36 37.6978 104.684 37.7218 104.972C37.7698 105.236 37.7938 105.644 37.7938 106.196V118.796C37.7938 119.348 37.7698 119.768 37.7218 120.056C37.6978 120.32 37.6018 120.632 37.4338 120.992C37.0978 121.616 36.2698 121.928 34.9498 121.928C33.6538 121.928 32.7778 121.772 32.3218 121.46C31.8898 121.124 31.6378 120.644 31.5658 120.02C30.6778 121.292 29.1898 121.928 27.1018 121.928C25.0378 121.928 23.1178 120.98 21.3418 119.084C19.5658 117.188 18.6778 114.992 18.6778 112.496C18.6778 109.976 19.5658 107.78 21.3418 105.908C23.1418 104.012 25.1098 103.064 27.2458 103.064C28.0618 103.064 28.8058 103.208 29.4778 103.496C30.1498 103.784 30.6178 104.06 30.8818 104.324C31.1458 104.564 31.3618 104.804 31.5298 105.044ZM24.9778 112.532C24.9778 113.324 25.2898 114.044 25.9138 114.692C26.5378 115.316 27.2938 115.628 28.1818 115.628C29.0698 115.628 29.8018 115.304 30.3778 114.656C30.9778 114.008 31.2778 113.3 31.2778 112.532C31.2778 111.74 30.9898 111.008 30.4138 110.336C29.8618 109.664 29.1058 109.328 28.1458 109.328C27.2098 109.328 26.4418 109.664 25.8418 110.336C25.2658 111.008 24.9778 111.74 24.9778 112.532ZM56.9711 110.264C56.9711 111.728 56.5991 112.82 55.8551 113.54C55.1351 114.236 54.3311 114.584 53.4431 114.584H44.9111C44.9111 115.256 45.3071 115.82 46.0991 116.276C46.8911 116.732 47.6831 116.96 48.4751 116.96C49.8671 116.96 50.9591 116.816 51.7511 116.528L52.1471 116.384C52.7231 116.12 53.2031 115.988 53.5871 115.988C54.3551 115.988 55.0151 116.528 55.5671 117.608C55.8791 118.256 56.0351 118.808 56.0351 119.264C56.0351 121.4 53.4791 122.468 48.3671 122.468C46.5911 122.468 45.0071 122.168 43.6151 121.568C42.2471 120.944 41.1791 120.128 40.4111 119.12C38.8991 117.176 38.1431 115.004 38.1431 112.604C38.1431 109.58 39.1151 107.168 41.0591 105.368C43.0271 103.544 45.4751 102.632 48.4031 102.632C51.7391 102.632 54.1871 103.808 55.7471 106.16C56.5631 107.408 56.9711 108.776 56.9711 110.264ZM49.3751 111.308C50.2871 111.308 50.7431 110.924 50.7431 110.156C50.7431 109.604 50.5271 109.16 50.0951 108.824C49.6871 108.488 49.0871 108.32 48.2951 108.32C47.5271 108.32 46.7591 108.644 45.9911 109.292C45.2231 109.916 44.8391 110.588 44.8391 111.308H49.3751ZM69.3638 119.624C68.4518 120.824 66.9998 121.424 65.0078 121.424C63.0158 121.424 61.1438 120.512 59.3918 118.688C57.6638 116.84 56.7998 114.692 56.7998 112.244C56.7998 109.796 57.6758 107.648 59.4278 105.8C61.1798 103.952 63.0998 103.028 65.1878 103.028C66.0038 103.028 66.7478 103.184 67.4198 103.496C68.0918 103.784 68.5478 104.06 68.7878 104.324C69.0518 104.564 69.2558 104.792 69.3998 105.008C69.4718 104.336 69.7118 103.832 70.1198 103.496C70.5518 103.136 71.2358 102.956 72.1718 102.956C73.1078 102.956 73.7918 103.028 74.2238 103.172C74.6558 103.316 74.9558 103.568 75.1238 103.928C75.3158 104.264 75.4238 104.564 75.4478 104.828C75.4958 105.092 75.5198 105.5 75.5198 106.052V120.956C75.5198 123.716 74.5598 125.936 72.6398 127.616C70.7198 129.32 68.5598 130.172 66.1598 130.172C64.3358 130.172 62.5958 129.728 60.9398 128.84C59.2838 127.952 58.4558 127.148 58.4558 126.428C58.4558 125.492 58.8158 124.664 59.5358 123.944C59.9918 123.44 60.3398 123.092 60.5798 122.9C60.8438 122.708 61.1438 122.612 61.4798 122.612C61.8158 122.612 62.1638 122.756 62.5238 123.044C63.6758 123.932 64.9238 124.376 66.2678 124.376C67.1798 124.376 67.9238 124.016 68.4998 123.296C69.0758 122.576 69.3638 121.712 69.3638 120.704V119.624ZM62.9558 112.28C62.9558 113.048 63.2558 113.744 63.8558 114.368C64.4798 114.992 65.2238 115.304 66.0878 115.304C66.9758 115.304 67.7078 114.992 68.2838 114.368C68.8598 113.72 69.1478 113.024 69.1478 112.28C69.1478 111.512 68.8718 110.804 68.3198 110.156C67.7678 109.484 67.0238 109.148 66.0878 109.148C65.1518 109.148 64.3958 109.472 63.8198 110.12C63.2438 110.768 62.9558 111.488 62.9558 112.28ZM94.7064 110.264C94.7064 111.728 94.3344 112.82 93.5904 113.54C92.8704 114.236 92.0664 114.584 91.1784 114.584H82.6464C82.6464 115.256 83.0424 115.82 83.8344 116.276C84.6264 116.732 85.4184 116.96 86.2104 116.96C87.6024 116.96 88.6944 116.816 89.4864 116.528L89.8824 116.384C90.4584 116.12 90.9384 115.988 91.3224 115.988C92.0904 115.988 92.7504 116.528 93.3024 117.608C93.6144 118.256 93.7704 118.808 93.7704 119.264C93.7704 121.4 91.2144 122.468 86.1024 122.468C84.3264 122.468 82.7424 122.168 81.3504 121.568C79.9824 120.944 78.9144 120.128 78.1464 119.12C76.6344 117.176 75.8784 115.004 75.8784 112.604C75.8784 109.58 76.8504 107.168 78.7944 105.368C80.7624 103.544 83.2104 102.632 86.1384 102.632C89.4744 102.632 91.9224 103.808 93.4824 106.16C94.2984 107.408 94.7064 108.776 94.7064 110.264ZM87.1104 111.308C88.0224 111.308 88.4784 110.924 88.4784 110.156C88.4784 109.604 88.2624 109.16 87.8304 108.824C87.4224 108.488 86.8224 108.32 86.0304 108.32C85.2624 108.32 84.4944 108.644 83.7264 109.292C82.9584 109.916 82.5744 110.588 82.5744 111.308H87.1104ZM107.963 103.244C108.419 103.388 108.791 103.64 109.079 104C109.391 104.336 109.547 104.888 109.547 105.656C109.547 106.424 109.319 107.264 108.863 108.176C108.407 109.088 107.747 109.544 106.883 109.544C106.451 109.544 106.031 109.448 105.623 109.256C105.239 109.064 104.723 108.968 104.075 108.968C103.427 108.968 102.815 109.196 102.239 109.652C101.687 110.108 101.411 110.66 101.411 111.308V118.868C101.411 119.42 101.387 119.84 101.339 120.128C101.315 120.392 101.207 120.704 101.015 121.064C100.655 121.688 99.7192 122 98.2072 122C97.0552 122 96.2272 121.796 95.7232 121.388C95.3392 121.052 95.1232 120.536 95.0752 119.84C95.0752 119.6 95.0752 119.252 95.0752 118.796V106.16C95.0752 105.608 95.0872 105.2 95.1112 104.936C95.1592 104.648 95.2672 104.336 95.4352 104C95.7712 103.352 96.7072 103.028 98.2432 103.028C99.6832 103.028 100.583 103.304 100.943 103.856C101.207 104.24 101.339 104.636 101.339 105.044C101.459 104.876 101.627 104.672 101.843 104.432C102.083 104.192 102.575 103.868 103.319 103.46C104.063 103.052 104.711 102.848 105.263 102.848C105.839 102.848 106.319 102.884 106.703 102.956C107.087 103.004 107.507 103.1 107.963 103.244Z" fill="#423DE3"/>
</svg>
