<svg width="46" height="39" viewBox="0 0 46 39" fill="none" xmlns="http://www.w3.org/2000/svg">
<path d="M21.5625 8.73438C21.5625 9.75 21.3874 10.7106 21.0373 11.6162C20.6871 12.5218 20.1066 13.3047 19.2957 13.9648C18.4848 14.625 17.5172 14.9551 16.393 14.9551C14.9924 14.9551 13.7208 14.4684 12.5781 13.4951C11.4355 12.5218 10.5877 11.375 10.0349 10.0547C9.48197 8.73438 9.20553 7.45638 9.20553 6.2207C9.20553 5.20508 9.38061 4.24447 9.73077 3.33887C10.0809 2.43327 10.6615 1.65039 11.4724 0.990234C12.2833 0.330078 13.2508 0 14.375 0C15.7941 0 17.0703 0.486654 18.2037 1.45996C19.3371 2.43327 20.1803 3.57585 20.7332 4.8877C21.2861 6.19954 21.5625 7.48177 21.5625 8.73438ZM12.1082 20.998C12.1082 22.3522 11.7212 23.5286 10.9471 24.5273C10.1731 25.526 9.07652 26.0254 7.65745 26.0254C6.25681 26.0254 4.95292 25.5557 3.74579 24.6162C2.53866 23.6768 1.61258 22.5469 0.967548 21.2266C0.322516 19.9062 0 18.6198 0 17.3672C0 16.013 0.387019 14.8324 1.16106 13.8252C1.9351 12.818 3.03165 12.3145 4.45072 12.3145C5.85136 12.3145 7.15525 12.7842 8.36238 13.7236C9.56951 14.6631 10.4956 15.7972 11.1406 17.126C11.7857 18.4548 12.1082 19.7454 12.1082 20.998ZM23 20.3125C25.1747 20.3125 27.5244 21.1377 30.0493 22.7881C32.5741 24.4385 34.6843 26.4443 36.3798 28.8057C38.0753 31.167 38.9231 33.321 38.9231 35.2676C38.9231 36.0462 38.7664 36.6937 38.4531 37.21C38.1398 37.7262 37.6929 38.1071 37.1124 38.3525C36.5319 38.598 35.9375 38.7673 35.3293 38.8604C34.7212 38.9535 34.0208 39 33.2284 39C31.9752 39 30.2474 38.6191 28.0451 37.8574C25.8427 37.0957 24.1611 36.7148 23 36.7148C21.7837 36.7148 20.0098 37.0915 17.6785 37.8447C15.3472 38.598 13.4996 38.9746 12.1358 38.9746C8.76322 38.9746 7.07692 37.7389 7.07692 35.2676C7.07692 33.8118 7.59295 32.1911 8.625 30.4053C9.65705 28.6195 10.9425 26.9902 12.4814 25.5176C14.0202 24.0449 15.748 22.8092 17.6647 21.8105C19.5813 20.8118 21.3598 20.3125 23 20.3125ZM29.607 14.9551C28.4828 14.9551 27.5152 14.625 26.7043 13.9648C25.8934 13.3047 25.3129 12.5218 24.9627 11.6162C24.6126 10.7106 24.4375 9.75 24.4375 8.73438C24.4375 7.48177 24.7139 6.19954 25.2668 4.8877C25.8197 3.57585 26.6629 2.43327 27.7963 1.45996C28.9297 0.486654 30.2059 0 31.625 0C32.7492 0 33.7167 0.330078 34.5276 0.990234C35.3385 1.65039 35.9191 2.43327 36.2692 3.33887C36.6194 4.24447 36.7945 5.20508 36.7945 6.2207C36.7945 7.45638 36.518 8.73438 35.9651 10.0547C35.4123 11.375 34.5645 12.5218 33.4219 13.4951C32.2792 14.4684 31.0076 14.9551 29.607 14.9551ZM41.5493 12.3145C42.9683 12.3145 44.0649 12.818 44.8389 13.8252C45.613 14.8324 46 16.013 46 17.3672C46 18.6198 45.6775 19.9062 45.0325 21.2266C44.3874 22.5469 43.4613 23.6768 42.2542 24.6162C41.0471 25.5557 39.7432 26.0254 38.3425 26.0254C36.9235 26.0254 35.8269 25.526 35.0529 24.5273C34.2788 23.5286 33.8918 22.3522 33.8918 20.998C33.8918 19.7454 34.2143 18.4548 34.8594 17.126C35.5044 15.7972 36.4305 14.6631 37.6376 13.7236C38.8448 12.7842 40.1486 12.3145 41.5493 12.3145Z" fill="url(#paint0_linear_134_631)"/>
<path d="M26.5906 32.3902L27.7079 31.3548C27.8583 31.2171 28.0476 31.1239 28.2528 31.0867C28.458 31.0494 28.6702 31.0696 28.8637 31.1448L30.202 31.6732C30.3975 31.7516 30.5643 31.8833 30.6814 32.0516C30.7984 32.22 30.8605 32.4175 30.8599 32.6192L30.8294 34.9625C30.8264 35.0997 30.7944 35.2349 30.735 35.3599C30.6757 35.485 30.5904 35.5972 30.4843 35.69C30.3781 35.7828 30.2532 35.8541 30.1173 35.8998C29.9813 35.9454 29.8369 35.9644 29.693 35.9555C20.2754 35.2752 18.4724 27.6581 18.1506 24.7478C18.1357 24.6048 18.1529 24.4606 18.2008 24.3245C18.2488 24.1884 18.3265 24.0636 18.4289 23.9582C18.5313 23.8528 18.656 23.7693 18.7948 23.7131C18.9336 23.6569 19.0834 23.6293 19.2344 23.6322L21.614 23.6631C21.8263 23.6665 22.0328 23.7302 22.2069 23.8461C22.381 23.9619 22.5148 24.1247 22.591 24.3133L23.1114 25.5998C23.1879 25.785 23.2055 25.9875 23.1617 26.182C23.118 26.3765 23.015 26.5544 22.8656 26.6934L21.7483 27.7289C21.7483 27.7289 22.3307 31.8286 26.5906 32.3902Z" fill="white"/>
<defs>
<linearGradient id="paint0_linear_134_631" x1="0" y1="19.5" x2="46" y2="19.5" gradientUnits="userSpaceOnUse">
<stop stop-color="#E15FED"/>
<stop offset="0.9999" stop-color="#9254C8"/>
<stop offset="1" stop-color="#4B0082"/>
</linearGradient>
</defs>
</svg>
