<svg width="577" height="448" viewBox="0 0 577 448" fill="none" xmlns="http://www.w3.org/2000/svg">
<path d="M280.385 116.21L96.015 268.06V431.95C96.015 436.193 97.7007 440.263 100.701 443.264C103.702 446.264 107.772 447.95 112.015 447.95L224.075 447.66C228.305 447.639 232.354 445.944 235.337 442.946C238.32 439.947 239.995 435.89 239.995 431.66V335.95C239.995 331.707 241.681 327.637 244.681 324.636C247.682 321.636 251.752 319.95 255.995 319.95H319.995C324.238 319.95 328.308 321.636 331.309 324.636C334.309 327.637 335.995 331.707 335.995 335.95V431.59C335.988 433.695 336.397 435.781 337.199 437.728C338 439.675 339.177 441.445 340.664 442.936C342.15 444.427 343.916 445.61 345.86 446.417C347.805 447.225 349.89 447.64 351.995 447.64L464.015 447.95C468.258 447.95 472.328 446.264 475.329 443.264C478.329 440.263 480.015 436.193 480.015 431.95V267.95L295.685 116.21C293.518 114.463 290.818 113.511 288.035 113.511C285.252 113.511 282.552 114.463 280.385 116.21V116.21ZM571.615 219.42L488.015 150.51V12C488.015 8.8174 486.751 5.76516 484.5 3.51472C482.25 1.26428 479.198 0 476.015 0H420.015C416.832 0 413.78 1.26428 411.53 3.51472C409.279 5.76516 408.015 8.8174 408.015 12V84.61L318.485 10.95C309.893 3.87979 299.112 0.0141335 287.985 0.0141335C276.858 0.0141335 266.077 3.87979 257.485 10.95L4.35499 219.42C3.13986 220.424 2.13454 221.658 1.39646 223.051C0.658379 224.444 0.202008 225.969 0.0534216 227.538C-0.0951645 229.108 0.0669466 230.691 0.530492 232.198C0.994038 233.705 1.74993 235.105 2.75499 236.32L28.255 267.32C29.2573 268.539 30.4902 269.548 31.883 270.29C33.2758 271.031 34.8012 271.491 36.3719 271.642C37.9426 271.794 39.5277 271.634 41.0366 271.172C42.5454 270.71 43.9483 269.955 45.165 268.95L280.385 75.21C282.552 73.4633 285.252 72.5107 288.035 72.5107C290.818 72.5107 293.518 73.4633 295.685 75.21L530.915 268.95C532.13 269.955 533.53 270.711 535.037 271.174C536.544 271.638 538.127 271.8 539.697 271.652C541.266 271.503 542.791 271.047 544.184 270.309C545.577 269.57 546.811 268.565 547.815 267.35L573.315 236.35C574.319 235.128 575.072 233.721 575.53 232.207C575.988 230.694 576.142 229.105 575.984 227.532C575.826 225.958 575.359 224.432 574.609 223.04C573.859 221.648 572.842 220.418 571.615 219.42V219.42Z" fill="white"/>
</svg>
