<svg width="103" height="87" viewBox="0 0 103 87" fill="none" xmlns="http://www.w3.org/2000/svg">
<path d="M96.2729 35.2586C95.9603 31.6635 95.5109 2.86824 89.8676 0.466586C80.3113 -3.59756 63.1524 20.2249 63.1524 20.2249C63.1524 20.2249 62.0276 19.2893 51.5001 19.2893C40.9725 19.2893 39.8477 20.2249 39.8477 20.2249C39.8477 20.2249 22.6888 -3.59756 13.1325 0.466586C7.48919 2.86824 7.03985 31.6635 6.72726 35.2586C6.41467 38.8537 -2.07547 53.2562 0.478268 64.2896C5.31782 85.1849 30.0458 86.9235 51.5001 86.9235C72.9543 86.9235 97.6823 85.1849 102.522 64.2896C105.076 53.2562 96.5855 38.8537 96.2729 35.2586Z" fill="#35EDE8"/>
<path d="M56.9058 30.0818C56.8835 27.5009 54.4972 25.4185 51.5666 25.416C51.5443 25.416 51.522 25.416 51.4997 25.416C51.4773 25.416 51.455 25.416 51.4327 25.416C48.5022 25.4185 46.1159 27.5009 46.0936 30.0818C45.968 44.4819 40.2297 66.1041 3.21582 71.3199C11.5078 85.5972 32.7527 86.9233 51.4997 86.9233C70.2466 86.9233 91.4915 85.5972 99.7835 71.3199C62.7696 66.1041 57.0314 44.4819 56.9058 30.0818Z" fill="white"/>
<path d="M37 47.5C37 49.4336 35.4335 51 33.5 51C31.5665 51 30 49.4336 30 47.5C30 45.5687 31.5665 44 33.5 44C35.4335 44 37 45.5687 37 47.5Z" fill="#4A4B5C"/>
<path d="M66 47.5C66 49.4336 67.5665 51 69.5 51C71.4335 51 73 49.4336 73 47.5C73 45.5687 71.4335 44 69.5 44C67.5665 44 66 45.5687 66 47.5Z" fill="#4A4B5C"/>
<path d="M51.5 47C47.6994 47 44.3957 47.9114 45.0938 49.7934C45.6597 51.3133 47.5816 52.8405 49.8424 53.3726C49.897 57.4962 49.9516 59.5703 50.0091 63.6938C50.032 65.4329 53.1834 65.4379 53.1604 63.6938C53.103 59.5826 53.0484 57.5183 52.9938 53.4071C55.3236 52.9119 57.3259 51.3502 57.9062 49.7934C58.6043 47.9114 55.3006 47 51.5 47Z" fill="#4A4B5C"/>
<path d="M17.1194 29.8354C19.7592 28.3869 25.1233 25.6142 31.2408 23.3931C31.9521 23.1347 32.222 22.367 31.7975 21.8006C29.121 18.218 20.6195 7.24154 17.5383 8.04154C14.353 8.87136 14.9434 23.6987 15.2583 28.9757C15.3061 29.7956 16.3294 30.2702 17.1194 29.8354Z" fill="white"/>
<path d="M85.8806 29.8354C83.2408 28.3869 77.8767 25.6142 71.7592 23.3931C71.0479 23.1347 70.778 22.367 71.2025 21.8006C73.879 18.218 82.3805 7.24154 85.4617 8.04154C88.647 8.87136 88.0566 23.6987 87.7417 28.9757C87.6939 29.7956 86.6706 30.2702 85.8806 29.8354Z" fill="white"/>
</svg>
