<svg width="576" height="512" viewBox="0 0 576 512" fill="none" xmlns="http://www.w3.org/2000/svg">
<g clip-path="url(#clip0_23_1465)">
<path d="M332.7 19.85C334.6 8.395 344.5 0 356.1 0C363.6 0 370.6 3.52 375.1 9.502L392 32H444.1C456.8 32 469.1 37.06 478.1 46.06L496 64H552C565.3 64 576 74.75 576 88V112C576 156.2 540.2 192 496 192H426.7L421.6 222.5L309.6 158.5L332.7 19.85V19.85ZM448 64C439.2 64 432 71.16 432 80C432 88.84 439.2 96 448 96C456.8 96 464 88.84 464 80C464 71.16 456.8 64 448 64ZM416 256.1V480C416 497.7 401.7 512 384 512H352C334.3 512 320 497.7 320 480V364.8C295.1 377.1 268.8 384 240 384C211.2 384 184 377.1 160 364.8V480C160 497.7 145.7 512 128 512H96.0004C78.3304 512 64.0004 497.7 64.0004 480V249.8C35.2304 238.9 12.6404 214.5 4.83638 183.3L0.956381 167.8C-3.33062 150.6 7.09438 133.2 24.2404 128.1C41.3804 124.7 58.7604 135.1 63.0504 152.2L66.9304 167.8C70.4904 182 83.2904 191.1 97.9704 191.1H303.8L416 256.1Z" fill="white"/>
</g>
<defs>
<clipPath id="clip0_23_1465">
<rect width="576" height="512" fill="white"/>
</clipPath>
</defs>
</svg>
