<svg width="481" height="513" viewBox="0 0 481 513" fill="none" xmlns="http://www.w3.org/2000/svg">
<path d="M271.981 208.008C271.981 216.808 264.781 224.008 255.981 224.008C247.181 224.008 239.081 216.808 239.081 208.008C239.081 199.208 247.181 192.008 255.981 192.008C264.781 192.008 271.981 199.208 271.981 208.008ZM240.281 0.0009812C245.881 -0.0430188 251.281 1.39398 256.081 4.07398L460.481 90.538C471.681 95.278 479.181 105.108 479.881 118.108C485.581 213.608 450.681 421.908 256.481 507.708C251.581 510.508 245.081 512.108 240.281 512.008C234.481 512.108 228.881 510.508 223.081 507.708C29.7809 421.908 -5.06915 213.608 0.550846 118.108C1.26085 105.108 8.81085 95.278 20.0208 90.538L224.381 4.07398C229.24 1.36479 234.718 -0.038528 240.281 0.0009812V0.0009812ZM144.881 286.208L127.081 320.008L255.981 384.008V320.008H303.981C348.181 320.008 383.981 284.208 383.981 240.008V208.008C383.981 199.208 376.781 192.008 367.981 192.008H303.981L296.781 177.708C291.381 166.808 280.281 160.008 268.181 160.008H223.081V224.008C223.081 259.308 195.281 288.008 159.081 288.008C154.781 288.008 149.681 287.408 144.881 286.208ZM127.081 176.008V224.008C127.081 241.708 142.281 256.008 159.081 256.008C177.681 256.008 191.081 241.708 191.081 224.008V160.008H143.081C135.181 160.008 127.081 167.208 127.081 176.008Z" fill="white"/>
</svg>
